<svg width="256" height="256" viewBox="0 0 256 256" fill="none" xmlns="http://www.w3.org/2000/svg">
<path d="M0 0H256V256H0V0Z" fill="white"/>
<g clip-path="url(#clip0_3202_118)">
<path d="M122.207 157.267C122.207 157.267 122.24 157.258 122.254 157.253C122.235 157.253 122.221 157.262 122.207 157.267Z" fill="url(#paint0_linear_3202_118)"/>
<path d="M122.207 157.267C122.207 157.267 122.24 157.258 122.254 157.253C122.235 157.253 122.221 157.262 122.207 157.267Z" fill="url(#paint1_linear_3202_118)"/>
<path d="M126.312 153.526C126.326 153.547 126.344 153.565 126.362 153.586L128.055 152.087C127.371 151.323 126.67 150.7 125.951 150.215C125.04 149.595 123.971 149.289 122.74 149.289C121.937 149.289 121.201 149.423 120.532 149.687C119.862 149.951 119.287 150.324 118.803 150.802C118.323 151.281 117.948 151.858 117.678 152.523C117.411 153.192 117.275 153.917 117.275 154.698C117.275 155.479 117.415 156.197 117.695 156.855C117.976 157.51 118.358 158.066 118.838 158.52C119.017 158.696 119.203 158.858 119.396 159.002C119.525 158.2 119.925 157.471 120.542 156.926C119.939 156.338 119.641 155.606 119.641 154.733C119.641 153.801 119.897 153.019 120.405 152.389C120.914 151.76 121.664 151.443 122.656 151.443C123.192 151.443 123.666 151.538 124.083 151.728C124.496 151.918 124.893 152.164 125.268 152.467C125.643 152.77 125.99 153.121 126.312 153.526Z" fill="#54B6B8"/>
<path d="M139.322 152.372C139.056 151.728 138.691 151.182 138.239 150.725C138.018 150.507 137.787 150.313 137.541 150.144C137.443 150.929 137.082 151.682 136.472 152.263C136.5 152.291 136.528 152.319 136.553 152.351C137.089 152.956 137.355 153.737 137.355 154.698C137.355 155.454 137.099 156.148 136.591 156.778C136.349 157.08 136.055 157.334 135.708 157.534C135.361 157.738 134.957 157.837 134.502 157.837C133.618 157.837 132.854 157.584 132.213 157.08C131.757 156.739 131.241 156.246 130.663 155.599L129.029 157.045C129.408 157.496 129.773 157.886 130.123 158.213C130.603 158.667 131.087 159.026 131.567 159.29C132.051 159.554 132.525 159.737 132.994 159.839C133.461 159.941 133.937 159.991 134.421 159.991C135.091 159.991 135.746 159.864 136.388 159.614C137.029 159.361 137.604 158.995 138.116 158.516C138.596 158.062 138.986 157.503 139.28 156.834C139.575 156.165 139.722 155.402 139.722 154.547V154.508C139.722 153.727 139.589 153.012 139.322 152.372Z" fill="#54B6B8"/>
<path d="M132.227 152.727C132.1 152.65 131.981 152.565 131.865 152.474C131.701 152.344 131.546 152.196 131.403 152.034C131.161 151.759 130.968 151.453 130.824 151.126L127.052 154.466L124.696 156.549C124.875 156.655 125.04 156.778 125.198 156.919C125.313 157.017 125.418 157.126 125.52 157.242C125.766 157.52 125.958 157.826 126.099 158.15L129.941 154.751L132.23 152.727H132.227Z" fill="#54B6B8"/>
<path d="M124.094 157.489C124.032 157.457 123.97 157.426 123.908 157.401C123.97 157.429 124.032 157.457 124.094 157.489Z" fill="#54B6B8"/>
<path d="M134.531 152.073C134.56 152.068 134.589 152.06 134.622 152.052C134.626 152.052 134.63 152.052 134.639 152.052C134.626 152.052 134.614 152.056 134.601 152.06C134.572 152.064 134.548 152.073 134.523 152.077C134.506 152.077 134.494 152.081 134.477 152.085C134.486 152.085 134.498 152.085 134.506 152.081C134.515 152.081 134.527 152.081 134.535 152.077L134.531 152.073Z" fill="#54B6B8"/>
<path d="M134.433 152.087C134.398 152.091 134.364 152.096 134.33 152.1C134.347 152.1 134.36 152.1 134.377 152.096C134.394 152.096 134.415 152.091 134.433 152.087Z" fill="#54B6B8"/>
<path d="M134.735 152.02C134.735 152.02 134.694 152.033 134.673 152.037C134.665 152.037 134.657 152.041 134.644 152.045C134.632 152.045 134.619 152.053 134.607 152.053C134.648 152.045 134.69 152.033 134.731 152.02H134.735Z" fill="#54B6B8"/>
<path d="M134.05 152.115C134.05 152.115 134.06 152.115 134.067 152.115C134.074 152.115 134.078 152.115 134.085 152.115C134.092 152.115 134.099 152.115 134.106 152.115C134.081 152.115 134.053 152.115 134.029 152.115C134.018 152.115 134.008 152.115 133.997 152.115C133.983 152.115 133.972 152.115 133.958 152.115C133.944 152.115 133.93 152.115 133.916 152.115C133.895 152.115 133.871 152.115 133.85 152.111C133.853 152.111 133.857 152.111 133.86 152.111C133.923 152.118 133.986 152.118 134.05 152.118V152.115Z" fill="#54B6B8"/>
<path d="M133.227 151.97C133.198 151.957 133.169 151.945 133.141 151.937C133.112 151.925 133.083 151.913 133.05 151.9C133.079 151.913 133.108 151.925 133.136 151.937C133.165 151.949 133.194 151.961 133.223 151.97H133.227Z" fill="#54B6B8"/>
<path d="M133.801 152.101C133.801 152.101 133.792 152.101 133.783 152.101C133.806 152.101 133.828 152.106 133.851 152.106C133.833 152.106 133.819 152.106 133.801 152.101Z" fill="#54B6B8"/>
<path d="M135.08 147.516C135.142 147.544 135.205 147.572 135.267 147.604C135.205 147.572 135.142 147.54 135.08 147.516Z" fill="#54B6B8"/>
<path d="M135.638 151.513C135.592 151.555 135.543 151.594 135.494 151.629C135.483 151.636 135.473 151.647 135.462 151.654C135.403 151.7 135.34 151.738 135.277 151.777C135.245 151.795 135.213 151.812 135.182 151.83C135.164 151.837 135.15 151.848 135.133 151.855C135.101 151.872 135.066 151.886 135.035 151.9C135.017 151.907 135 151.914 134.986 151.921C134.95 151.936 134.919 151.95 134.884 151.96C134.856 151.971 134.828 151.981 134.8 151.988C134.772 151.999 134.744 152.006 134.716 152.013C134.698 152.016 134.681 152.024 134.663 152.027C134.656 152.027 134.649 152.031 134.638 152.034C134.631 152.034 134.624 152.038 134.614 152.041C134.6 152.041 134.589 152.048 134.575 152.052C134.551 152.055 134.53 152.062 134.509 152.066C134.495 152.066 134.484 152.069 134.47 152.073C134.453 152.076 134.432 152.08 134.414 152.083C134.414 152.083 134.383 152.087 134.369 152.09C134.355 152.09 134.344 152.09 134.33 152.094C134.33 152.094 134.302 152.097 134.284 152.097C134.284 152.097 134.277 152.097 134.274 152.097H134.27C134.27 152.097 134.249 152.097 134.239 152.097C134.232 152.097 134.221 152.097 134.214 152.097H134.211C134.211 152.097 134.197 152.097 134.193 152.097C134.183 152.097 134.169 152.097 134.158 152.097C134.148 152.097 134.134 152.097 134.123 152.097H134.109C134.109 152.097 134.095 152.097 134.088 152.097C134.081 152.097 134.078 152.097 134.071 152.097C134.057 152.097 134.046 152.097 134.032 152.097C134.021 152.097 134.011 152.097 134 152.097C133.986 152.097 133.976 152.097 133.962 152.097C133.948 152.097 133.934 152.097 133.92 152.097C133.902 152.097 133.885 152.097 133.864 152.097C133.86 152.097 133.857 152.097 133.853 152.097C133.853 152.097 133.846 152.097 133.843 152.097C133.829 152.097 133.818 152.097 133.804 152.094C133.794 152.094 133.783 152.094 133.773 152.094C133.766 152.094 133.762 152.094 133.755 152.094C133.741 152.094 133.727 152.09 133.709 152.087C133.657 152.08 133.608 152.069 133.555 152.059C133.513 152.048 133.475 152.041 133.433 152.031C133.411 152.027 133.394 152.02 133.373 152.013C133.355 152.006 133.334 152.002 133.317 151.995C133.299 151.992 133.285 151.985 133.268 151.978C133.247 151.971 133.226 151.964 133.205 151.957C133.18 151.946 133.156 151.936 133.131 151.928C133.106 151.918 133.082 151.907 133.054 151.897C133.029 151.886 133.005 151.872 132.98 151.862C132.949 151.848 132.917 151.83 132.889 151.812C132.854 151.791 132.819 151.774 132.787 151.753C132.752 151.731 132.721 151.71 132.689 151.686C132.619 151.636 132.549 151.584 132.482 151.527C132.451 151.499 132.416 151.467 132.384 151.439C132.335 151.394 132.29 151.344 132.244 151.295C131.992 151.01 131.82 150.679 131.729 150.334C131.704 150.243 131.683 150.148 131.669 150.053C131.603 149.609 131.662 149.155 131.841 148.744C131.978 148.427 132.184 148.131 132.461 147.888C132.577 147.786 132.696 147.698 132.823 147.625C132.886 147.586 132.949 147.551 133.015 147.519C133.341 147.361 133.695 147.283 134.05 147.283C134.197 147.283 134.341 147.297 134.484 147.322C134.526 147.329 134.565 147.34 134.607 147.347C134.649 147.357 134.688 147.368 134.73 147.378C134.849 147.413 134.968 147.459 135.084 147.512C135.14 147.54 135.196 147.568 135.252 147.6C135.326 147.642 135.399 147.688 135.469 147.741C135.504 147.765 135.539 147.793 135.571 147.822C135.673 147.906 135.767 147.998 135.858 148.1C136.237 148.529 136.433 149.06 136.458 149.592C136.49 150.296 136.213 151.006 135.645 151.51L135.638 151.513Z" fill="#54B6B8"/>
<path d="M123.908 157.397C123.97 157.426 124.032 157.454 124.094 157.485C124.032 157.454 123.97 157.422 123.908 157.397Z" fill="#54B6B8"/>
<path d="M125.085 160.54C124.949 160.857 124.742 161.152 124.468 161.395C124.412 161.444 124.353 161.494 124.293 161.536C124.234 161.582 124.17 161.62 124.107 161.659C124.076 161.677 124.044 161.694 124.013 161.712C123.957 161.74 123.904 161.768 123.848 161.793C123.764 161.831 123.68 161.863 123.592 161.888C123.466 161.926 123.34 161.955 123.213 161.972C123.105 161.986 122.993 161.997 122.88 161.997C122.691 161.997 122.505 161.976 122.323 161.93C122.281 161.919 122.242 161.909 122.2 161.898C122.018 161.846 121.843 161.772 121.678 161.673C121.643 161.652 121.604 161.631 121.569 161.606C121.39 161.49 121.222 161.346 121.075 161.177C120.679 160.726 120.482 160.17 120.475 159.614C120.465 158.932 120.742 158.252 121.289 157.767C121.362 157.7 121.439 157.64 121.52 157.584C121.573 157.545 121.629 157.51 121.685 157.482C121.727 157.457 121.769 157.436 121.811 157.415C121.941 157.352 122.074 157.299 122.211 157.26C122.221 157.257 122.235 157.253 122.246 157.25C122.453 157.193 122.666 157.165 122.877 157.165C123.024 157.165 123.168 157.179 123.312 157.204C123.354 157.211 123.392 157.221 123.434 157.228C123.476 157.239 123.515 157.25 123.557 157.26C123.638 157.285 123.718 157.313 123.799 157.345C123.837 157.359 123.872 157.376 123.911 157.394C123.967 157.422 124.023 157.45 124.079 157.482C124.114 157.503 124.149 157.524 124.181 157.545C124.22 157.57 124.258 157.594 124.293 157.623C124.328 157.647 124.363 157.675 124.395 157.703C124.496 157.788 124.591 157.879 124.682 157.981C124.935 158.267 125.106 158.597 125.198 158.942C125.236 159.083 125.261 159.227 125.275 159.372C125.31 159.766 125.243 160.167 125.085 160.533V160.54Z" fill="#54B6B8"/>
<path d="M126.312 153.526C126.326 153.547 126.344 153.565 126.362 153.586L128.055 152.087C127.371 151.323 126.67 150.7 125.951 150.215C125.04 149.595 123.971 149.289 122.74 149.289C121.937 149.289 121.201 149.423 120.532 149.687C119.862 149.951 119.287 150.324 118.803 150.802C118.323 151.281 117.948 151.858 117.678 152.523C117.411 153.192 117.275 153.917 117.275 154.698C117.275 155.479 117.415 156.197 117.695 156.855C117.976 157.51 118.358 158.066 118.838 158.52C119.017 158.696 119.203 158.858 119.396 159.002C119.525 158.2 119.925 157.471 120.542 156.926C119.939 156.338 119.641 155.606 119.641 154.733C119.641 153.801 119.897 153.019 120.405 152.389C120.914 151.76 121.664 151.443 122.656 151.443C123.192 151.443 123.666 151.538 124.083 151.728C124.496 151.918 124.893 152.164 125.268 152.467C125.643 152.77 125.99 153.121 126.312 153.526Z" fill="#54B6B8"/>
<path d="M139.322 152.372C139.056 151.728 138.691 151.182 138.239 150.725C138.018 150.507 137.787 150.313 137.541 150.144C137.443 150.929 137.082 151.682 136.472 152.263C136.5 152.291 136.528 152.319 136.553 152.351C137.089 152.956 137.355 153.737 137.355 154.698C137.355 155.454 137.099 156.148 136.591 156.778C136.349 157.08 136.055 157.334 135.708 157.534C135.361 157.738 134.957 157.837 134.502 157.837C133.618 157.837 132.854 157.584 132.213 157.08C131.757 156.739 131.241 156.246 130.663 155.599L129.029 157.045C129.408 157.496 129.773 157.886 130.123 158.213C130.603 158.667 131.087 159.026 131.567 159.29C132.051 159.554 132.525 159.737 132.994 159.839C133.461 159.941 133.937 159.991 134.421 159.991C135.091 159.991 135.746 159.864 136.388 159.614C137.029 159.361 137.604 158.995 138.116 158.516C138.596 158.062 138.986 157.503 139.28 156.834C139.575 156.165 139.722 155.402 139.722 154.547V154.508C139.722 153.727 139.589 153.012 139.322 152.372Z" fill="#54B6B8"/>
<path d="M132.227 152.727C132.1 152.65 131.981 152.565 131.865 152.474C131.701 152.344 131.546 152.196 131.403 152.034C131.161 151.759 130.968 151.453 130.824 151.126L127.052 154.466L124.696 156.549C124.875 156.655 125.04 156.778 125.198 156.919C125.313 157.017 125.418 157.126 125.52 157.242C125.766 157.52 125.958 157.826 126.099 158.15L129.941 154.751L132.23 152.727H132.227Z" fill="#54B6B8"/>
<path d="M124.094 157.489C124.032 157.457 123.97 157.426 123.908 157.401C123.97 157.429 124.032 157.457 124.094 157.489Z" fill="#54B6B8"/>
<path d="M134.531 152.073C134.56 152.068 134.589 152.06 134.622 152.052C134.626 152.052 134.63 152.052 134.639 152.052C134.626 152.052 134.614 152.056 134.601 152.06C134.572 152.064 134.548 152.073 134.523 152.077C134.506 152.077 134.494 152.081 134.477 152.085C134.486 152.085 134.498 152.085 134.506 152.081C134.515 152.081 134.527 152.081 134.535 152.077L134.531 152.073Z" fill="#54B6B8"/>
<path d="M134.433 152.087C134.398 152.091 134.364 152.096 134.33 152.1C134.347 152.1 134.36 152.1 134.377 152.096C134.394 152.096 134.415 152.091 134.433 152.087Z" fill="#54B6B8"/>
<path d="M134.735 152.02C134.735 152.02 134.694 152.033 134.673 152.037C134.665 152.037 134.657 152.041 134.644 152.045C134.632 152.045 134.619 152.053 134.607 152.053C134.648 152.045 134.69 152.033 134.731 152.02H134.735Z" fill="#54B6B8"/>
<path d="M134.05 152.115C134.05 152.115 134.06 152.115 134.067 152.115C134.074 152.115 134.078 152.115 134.085 152.115C134.092 152.115 134.099 152.115 134.106 152.115C134.081 152.115 134.053 152.115 134.029 152.115C134.018 152.115 134.008 152.115 133.997 152.115C133.983 152.115 133.972 152.115 133.958 152.115C133.944 152.115 133.93 152.115 133.916 152.115C133.895 152.115 133.871 152.115 133.85 152.111C133.853 152.111 133.857 152.111 133.86 152.111C133.923 152.118 133.986 152.118 134.05 152.118V152.115Z" fill="#54B6B8"/>
<path d="M133.227 151.97C133.198 151.957 133.169 151.945 133.141 151.937C133.112 151.925 133.083 151.913 133.05 151.9C133.079 151.913 133.108 151.925 133.136 151.937C133.165 151.949 133.194 151.961 133.223 151.97H133.227Z" fill="#54B6B8"/>
<path d="M133.801 152.101C133.801 152.101 133.792 152.101 133.783 152.101C133.806 152.101 133.828 152.106 133.851 152.106C133.833 152.106 133.819 152.106 133.801 152.101Z" fill="#54B6B8"/>
<path d="M135.08 147.516C135.142 147.544 135.205 147.572 135.267 147.604C135.205 147.572 135.142 147.54 135.08 147.516Z" fill="#54B6B8"/>
<path d="M135.638 151.513C135.592 151.555 135.543 151.594 135.494 151.629C135.483 151.636 135.473 151.647 135.462 151.654C135.403 151.7 135.34 151.738 135.277 151.777C135.245 151.795 135.213 151.812 135.182 151.83C135.164 151.837 135.15 151.848 135.133 151.855C135.101 151.872 135.066 151.886 135.035 151.9C135.017 151.907 135 151.914 134.986 151.921C134.95 151.936 134.919 151.95 134.884 151.96C134.856 151.971 134.828 151.981 134.8 151.988C134.772 151.999 134.744 152.006 134.716 152.013C134.698 152.016 134.681 152.024 134.663 152.027C134.656 152.027 134.649 152.031 134.638 152.034C134.631 152.034 134.624 152.038 134.614 152.041C134.6 152.041 134.589 152.048 134.575 152.052C134.551 152.055 134.53 152.062 134.509 152.066C134.495 152.066 134.484 152.069 134.47 152.073C134.453 152.076 134.432 152.08 134.414 152.083C134.414 152.083 134.383 152.087 134.369 152.09C134.355 152.09 134.344 152.09 134.33 152.094C134.33 152.094 134.302 152.097 134.284 152.097C134.284 152.097 134.277 152.097 134.274 152.097H134.27C134.27 152.097 134.249 152.097 134.239 152.097C134.232 152.097 134.221 152.097 134.214 152.097H134.211C134.211 152.097 134.197 152.097 134.193 152.097C134.183 152.097 134.169 152.097 134.158 152.097C134.148 152.097 134.134 152.097 134.123 152.097H134.109C134.109 152.097 134.095 152.097 134.088 152.097C134.081 152.097 134.078 152.097 134.071 152.097C134.057 152.097 134.046 152.097 134.032 152.097C134.021 152.097 134.011 152.097 134 152.097C133.986 152.097 133.976 152.097 133.962 152.097C133.948 152.097 133.934 152.097 133.92 152.097C133.902 152.097 133.885 152.097 133.864 152.097C133.86 152.097 133.857 152.097 133.853 152.097C133.853 152.097 133.846 152.097 133.843 152.097C133.829 152.097 133.818 152.097 133.804 152.094C133.794 152.094 133.783 152.094 133.773 152.094C133.766 152.094 133.762 152.094 133.755 152.094C133.741 152.094 133.727 152.09 133.709 152.087C133.657 152.08 133.608 152.069 133.555 152.059C133.513 152.048 133.475 152.041 133.433 152.031C133.411 152.027 133.394 152.02 133.373 152.013C133.355 152.006 133.334 152.002 133.317 151.995C133.299 151.992 133.285 151.985 133.268 151.978C133.247 151.971 133.226 151.964 133.205 151.957C133.18 151.946 133.156 151.936 133.131 151.928C133.106 151.918 133.082 151.907 133.054 151.897C133.029 151.886 133.005 151.872 132.98 151.862C132.949 151.848 132.917 151.83 132.889 151.812C132.854 151.791 132.819 151.774 132.787 151.753C132.752 151.731 132.721 151.71 132.689 151.686C132.619 151.636 132.549 151.584 132.482 151.527C132.451 151.499 132.416 151.467 132.384 151.439C132.335 151.394 132.29 151.344 132.244 151.295C131.992 151.01 131.82 150.679 131.729 150.334C131.704 150.243 131.683 150.148 131.669 150.053C131.603 149.609 131.662 149.155 131.841 148.744C131.978 148.427 132.184 148.131 132.461 147.888C132.577 147.786 132.696 147.698 132.823 147.625C132.886 147.586 132.949 147.551 133.015 147.519C133.341 147.361 133.695 147.283 134.05 147.283C134.197 147.283 134.341 147.297 134.484 147.322C134.526 147.329 134.565 147.34 134.607 147.347C134.649 147.357 134.688 147.368 134.73 147.378C134.849 147.413 134.968 147.459 135.084 147.512C135.14 147.54 135.196 147.568 135.252 147.6C135.326 147.642 135.399 147.688 135.469 147.741C135.504 147.765 135.539 147.793 135.571 147.822C135.673 147.906 135.767 147.998 135.858 148.1C136.237 148.529 136.433 149.06 136.458 149.592C136.49 150.296 136.213 151.006 135.645 151.51L135.638 151.513Z" fill="#54B6B8"/>
<path d="M123.908 157.397C123.97 157.426 124.032 157.454 124.094 157.485C124.032 157.454 123.97 157.422 123.908 157.397Z" fill="#54B6B8"/>
<path d="M125.085 160.54C124.949 160.857 124.742 161.152 124.468 161.395C124.412 161.444 124.353 161.494 124.293 161.536C124.234 161.582 124.17 161.62 124.107 161.659C124.076 161.677 124.044 161.694 124.013 161.712C123.957 161.74 123.904 161.768 123.848 161.793C123.764 161.831 123.68 161.863 123.592 161.888C123.466 161.926 123.34 161.955 123.213 161.972C123.105 161.986 122.993 161.997 122.88 161.997C122.691 161.997 122.505 161.976 122.323 161.93C122.281 161.919 122.242 161.909 122.2 161.898C122.018 161.846 121.843 161.772 121.678 161.673C121.643 161.652 121.604 161.631 121.569 161.606C121.39 161.49 121.222 161.346 121.075 161.177C120.679 160.726 120.482 160.17 120.475 159.614C120.465 158.932 120.742 158.252 121.289 157.767C121.362 157.7 121.439 157.64 121.52 157.584C121.573 157.545 121.629 157.51 121.685 157.482C121.727 157.457 121.769 157.436 121.811 157.415C121.941 157.352 122.074 157.299 122.211 157.26C122.221 157.257 122.235 157.253 122.246 157.25C122.453 157.193 122.666 157.165 122.877 157.165C123.024 157.165 123.168 157.179 123.312 157.204C123.354 157.211 123.392 157.221 123.434 157.228C123.476 157.239 123.515 157.25 123.557 157.26C123.638 157.285 123.718 157.313 123.799 157.345C123.837 157.359 123.872 157.376 123.911 157.394C123.967 157.422 124.023 157.45 124.079 157.482C124.114 157.503 124.149 157.524 124.181 157.545C124.22 157.57 124.258 157.594 124.293 157.623C124.328 157.647 124.363 157.675 124.395 157.703C124.496 157.788 124.591 157.879 124.682 157.981C124.935 158.267 125.106 158.597 125.198 158.942C125.236 159.083 125.261 159.227 125.275 159.372C125.31 159.766 125.243 160.167 125.085 160.533V160.54Z" fill="#54B6B8"/>
<path d="M64.8888 115.596L56.4821 140.639H48.738L60.7801 109.371H70.179L82.2702 140.639H73.4849L64.9835 115.596H64.8888ZM57.8038 134.223L59.4585 129.423H70.2736L72.0195 134.223H57.8038Z" fill="#1D3C68"/>
<path d="M87.7215 139.474C86.0984 138.446 84.8468 137.004 83.9669 135.149C83.0869 133.294 82.6452 131.151 82.6452 128.709C82.6452 126.267 83.101 124.243 84.016 122.438C84.9274 120.632 86.2351 119.239 87.9354 118.257C89.6356 117.275 91.6023 116.783 93.839 116.783C95.1606 116.783 96.3035 116.934 97.2641 117.233C98.2246 117.536 99.0344 117.968 99.697 118.539C100.36 119.109 100.861 119.837 101.208 120.724H101.254V107.703H108.195V140.632H101.254C101.348 138.953 101.443 137.257 101.538 135.547H101.443C101.127 136.687 100.633 137.655 99.9564 138.446C99.2798 139.238 98.3964 139.865 97.3131 140.322C96.2264 140.78 94.9924 141.012 93.6076 141.012C91.3078 141.012 89.3482 140.498 87.7285 139.467L87.7215 139.474ZM98.3473 134.769C99.2763 134.216 99.9915 133.456 100.496 132.489C101.001 131.524 101.25 130.391 101.25 129.093V127.952C101.25 126.812 100.998 125.806 100.496 124.936C99.9915 124.067 99.2833 123.392 98.3719 122.916C97.4569 122.441 96.4192 122.202 95.2553 122.202C94.1545 122.202 93.1624 122.473 92.2789 123.011C91.399 123.55 90.7294 124.31 90.2737 125.292C89.8179 126.274 89.5901 127.432 89.5901 128.762C89.5901 130.092 89.8179 131.274 90.2737 132.302C90.7294 133.333 91.3745 134.139 92.2088 134.727C93.0432 135.314 94.0423 135.606 95.2062 135.606C96.3701 135.606 97.4183 135.328 98.3473 134.776V134.769Z" fill="#1D3C68"/>
<path d="M127.178 115.596L118.772 140.639H111.028L123.07 109.371H132.468L144.56 140.639H135.774L127.273 115.596H127.178ZM120.093 134.223L121.748 129.423H132.563L134.309 134.223H120.093Z" fill="#54B6B8"/>
<path d="M152.181 139.64C150.025 138.658 148.381 137.225 147.245 135.339C146.113 133.456 145.545 131.197 145.545 128.568V109.276H152.959V128.283C152.959 129.677 153.268 130.88 153.881 131.894C154.495 132.907 155.336 133.636 156.409 134.079C157.478 134.523 158.737 134.744 160.188 134.744C161.64 134.744 162.811 134.523 163.894 134.079C164.981 133.636 165.804 132.907 166.372 131.894C166.94 130.88 167.221 129.677 167.221 128.283V109.276H173.973V128.568C173.973 131.197 173.384 133.456 172.202 135.339C171.021 137.225 169.359 138.658 167.221 139.64C165.079 140.621 162.593 141.114 159.761 141.114C156.928 141.114 154.337 140.625 152.181 139.64Z" fill="#54B6B8"/>
<path d="M185.31 139.189C182.821 137.904 180.903 136.046 179.55 133.604C178.197 131.165 177.52 128.315 177.52 125.049C177.52 121.783 178.204 118.841 179.575 116.402C180.945 113.964 182.863 112.102 185.338 110.818C187.81 109.533 190.635 108.893 193.815 108.893C196.616 108.893 199.087 109.385 201.229 110.367C203.371 111.349 205.061 112.76 206.306 114.597C207.55 116.434 208.171 118.542 208.171 120.918C208.171 121.678 208.139 122.311 208.076 122.818H201.464C201.496 122.438 201.51 122.058 201.51 121.678C201.51 120.221 201.201 118.993 200.588 117.997C199.974 116.997 199.115 116.23 198.015 115.692C196.91 115.153 195.62 114.882 194.141 114.882C192.441 114.882 190.923 115.301 189.583 116.142C188.244 116.983 187.189 118.162 186.418 119.682C185.647 121.203 185.261 122.994 185.261 125.053C185.261 127.111 185.647 128.902 186.418 130.423C187.189 131.943 188.251 133.108 189.604 133.914C190.958 134.723 192.486 135.124 194.186 135.124C195.729 135.124 197.051 134.857 198.155 134.315C199.256 133.776 200.108 133.016 200.704 132.034C201.3 131.053 201.601 129.927 201.601 128.66C201.601 128.28 201.583 127.931 201.555 127.614H208.213C208.244 128.121 208.258 128.628 208.258 129.135C208.258 131.478 207.638 133.569 206.393 135.406C205.149 137.243 203.449 138.654 201.293 139.636C199.136 140.618 196.654 141.11 193.853 141.11C190.642 141.11 187.792 140.47 185.306 139.185L185.31 139.189Z" fill="#54B6B8"/>
<path d="M111.017 153.533H40.9203C38.3576 153.533 36.2787 151.446 36.2787 148.874V99.947C36.2787 97.3745 38.3576 95.2876 40.9203 95.2876H216.076C218.639 95.2876 220.718 97.3745 220.718 99.947V148.87C220.718 151.443 218.639 153.53 216.076 153.53H145.98" stroke="#1D3C68" stroke-width="5" stroke-linecap="round" stroke-linejoin="round"/>
</g>
<defs>
<linearGradient id="paint0_linear_3202_118" x1="122.231" y1="157.248" x2="122.231" y2="157.267" gradientUnits="userSpaceOnUse">
<stop stop-color="#4DB7E1"/>
<stop offset="1" stop-color="#328BCA"/>
</linearGradient>
<linearGradient id="paint1_linear_3202_118" x1="122.231" y1="157.248" x2="122.231" y2="157.267" gradientUnits="userSpaceOnUse">
<stop stop-color="#4DB7E1"/>
<stop offset="1" stop-color="#328BCA"/>
</linearGradient>
<clipPath id="clip0_3202_118">
<rect width="189" height="69" fill="white" transform="translate(34 93)"/>
</clipPath>
</defs>
</svg>
